<svg width="24" height="24" viewBox="0 0 24 24" fill="none" xmlns="http://www.w3.org/2000/svg">
<path d="M13.2197 14.2803C13.5126 14.5732 13.9874 14.5732 14.2803 14.2803C14.5732 13.9874 14.5732 13.5126 14.2803 13.2197L13.2197 14.2803ZM10.7803 9.71967C10.4874 9.42678 10.0126 9.42678 9.71967 9.71967C9.42678 10.0126 9.42678 10.4874 9.71967 10.7803L10.7803 9.71967ZM14.2803 13.2197L10.7803 9.71967L9.71967 10.7803L13.2197 14.2803L14.2803 13.2197Z" fill="#160042"/>
<path d="M9.71967 13.2197C9.42678 13.5126 9.42678 13.9874 9.71967 14.2803C10.0126 14.5732 10.4874 14.5732 10.7803 14.2803L9.71967 13.2197ZM14.2803 10.7803C14.5732 10.4874 14.5732 10.0126 14.2803 9.71967C13.9874 9.42678 13.5126 9.42678 13.2197 9.71967L14.2803 10.7803ZM10.7803 14.2803L14.2803 10.7803L13.2197 9.71967L9.71967 13.2197L10.7803 14.2803Z" fill="#160042"/>
<path d="M4.75 12C4.75 16.0041 7.99594 19.25 12 19.25C16.0041 19.25 19.25 16.0041 19.25 12C19.25 7.99594 16.0041 4.75 12 4.75C7.99594 4.75 4.75 7.99594 4.75 12Z" stroke="#160042" stroke-width="1.5"/>
</svg>
