<svg width="290" height="310" viewBox="0 0 290 310" fill="none" xmlns="http://www.w3.org/2000/svg">
<path d="M232.5 269.5C237.471 269.5 241.5 265.471 241.5 260.5M62 43.5H229.5C232.814 43.5 235.5 46.1863 235.5 49.5V260C235.5 261.933 233.933 263.5 232 263.5H62.5H62C57.3056 263.5 53.5 259.694 53.5 255V52C53.5 47.3056 57.3056 43.5 62 43.5Z" fill="#0CA5E9" stroke="#06618A"/>
<path d="M72 72.5H34C32.6193 72.5 31.5 73.6193 31.5 75V89C31.5 90.3807 32.6193 91.5 34 91.5H72C73.3807 91.5 74.5 90.3807 74.5 89V75C74.5 73.6193 73.3807 72.5 72 72.5Z" fill="white" stroke="#06618A"/>
<path d="M72 123.5H34C32.6193 123.5 31.5 124.619 31.5 126V140C31.5 141.381 32.6193 142.5 34 142.5H72C73.3807 142.5 74.5 141.381 74.5 140V126C74.5 124.619 73.3807 123.5 72 123.5Z" fill="white" stroke="#06618A"/>
<path d="M72 170.5H34C32.6193 170.5 31.5 171.619 31.5 173V187C31.5 188.381 32.6193 189.5 34 189.5H72C73.3807 189.5 74.5 188.381 74.5 187V173C74.5 171.619 73.3807 170.5 72 170.5Z" fill="white" stroke="#06618A"/>
<path d="M72 219.5H34C32.6193 219.5 31.5 220.619 31.5 222V236C31.5 237.381 32.6193 238.5 34 238.5H72C73.3807 238.5 74.5 237.381 74.5 236V222C74.5 220.619 73.3807 219.5 72 219.5Z" fill="white" stroke="#06618A"/>
<g clip-path="url(#clip0_1716_600)">
<path d="M115.688 217.732L97.6972 238.669C96.5464 240.008 96.7954 242.047 98.2346 243.069L111.154 252.252C111.813 252.72 112.634 252.903 113.429 252.758L121.449 251.298C121.884 251.219 122.296 251.044 122.655 250.787L149.567 231.565L176.012 212.058C177.502 210.959 177.65 208.786 176.324 207.495L164.288 195.768C163.202 194.711 161.497 194.629 160.316 195.579L128.27 221.324C127.147 222.226 125.542 222.203 124.446 221.269L119.909 217.404C118.652 216.333 116.765 216.479 115.688 217.732Z" fill="white" stroke="white"/>
</g>
<g clip-path="url(#clip1_1716_600)">
<path d="M179.202 150.097L198.862 130.477C200.121 129.221 202.19 129.329 203.31 130.71L213.37 143.098C213.875 143.721 214.11 144.52 214.023 145.317L213.121 153.516C213.071 153.968 212.919 154.402 212.677 154.787L177.598 210.454C176.622 212.002 174.499 212.323 173.109 211.133L160.761 200.559C159.596 199.561 159.371 197.844 160.241 196.58L183.714 162.462C184.524 161.285 184.391 159.7 183.397 158.674L179.167 154.308C178.026 153.131 178.042 151.255 179.202 150.097Z" fill="white" stroke="white"/>
</g>
<path d="M97 98C97 95.7909 98.7909 94 101 94H201C203.209 94 205 95.7909 205 98V114C205 116.209 203.209 118 201 118H101C98.7909 118 97 116.209 97 114V98Z" fill="white"/>
<rect x="97" y="63" width="108" height="24" rx="4" fill="white"/>
<path d="M239.796 270.145H70.8471C68.4036 270.145 66.9851 272.91 68.4101 274.894L71.8961 279.75C72.4597 280.535 73.3668 281 74.333 281H251C252.657 281 254 279.657 254 278V66.406C254 65.7378 253.777 65.0888 253.366 64.5618L248.163 57.8852C246.408 55.6334 242.796 56.8745 242.796 59.7294V267.145C242.796 268.802 241.453 270.145 239.796 270.145Z" fill="#0CA5E9" stroke="#06618A"/>
<path d="M237 266H64.2361C63.1808 266 62.845 267.423 63.7889 267.894C63.9277 267.964 64.0808 268 64.2361 268H240C240.552 268 241 267.552 241 267V52.8028C241 52.6054 240.942 52.4123 240.832 52.2481L239.832 50.7481C239.283 49.9248 238 50.3134 238 51.3028V265C238 265.552 237.552 266 237 266Z" fill="white" stroke="white"/>
<defs>
<clipPath id="clip0_1716_600">
<rect width="68" height="105" fill="white" transform="matrix(0.287136 0.95789 0.95789 -0.287136 81 201.149)"/>
</clipPath>
<clipPath id="clip1_1716_600">
<rect width="68" height="105" fill="white" transform="translate(170.118 121) rotate(12.7193)"/>
</clipPath>
</defs>
</svg>
